Coordinates
version=1
nRows=60
nColumns=12
inDegrees=yes

Units are S.I. units (second, meters, Newtons, ...)
Angles are in degrees

endheader
time	SC_y	SC_z	SC_x	AC_y	AC_z	AC_x	GH_y	GH_z	GH_yy	EL_x	PS_y
       0.0              -32.77          10.38          12.75          33.12         -5.996          -7.38         -36.12        -0.7086          26.35          18.45          8.213
   0.03353              -32.77          10.38          12.76          33.13         -5.996         -7.378         -36.09        -0.6956          26.33          18.45          8.219
   0.06706              -32.77          10.38          12.76          33.13         -5.996         -7.376         -36.06        -0.6818          26.31          18.46          8.226
    0.1006              -32.77          10.37          12.77          33.13         -5.996         -7.373         -36.02        -0.6672          26.29          18.46          8.233
    0.1341              -32.76          10.37          12.78          33.14         -5.996          -7.37         -35.98        -0.6516          26.26          18.46          8.241
    0.1676              -32.76          10.37          12.79          33.14         -5.996         -7.368         -35.95        -0.6349          26.24          18.46          8.249
    0.2012              -32.76          10.37           12.8          33.15         -5.996         -7.365          -35.9        -0.6171          26.21          18.46          8.257
    0.2347              -32.76          10.37          12.82          33.15         -5.996         -7.361         -35.86        -0.5981          26.18          18.46          8.267
    0.2682              -32.75          10.37          12.83          33.16         -5.996         -7.358         -35.81        -0.5778          26.15          18.47          8.277
    0.3017              -32.75          10.36          12.84          33.17         -5.997         -7.354         -35.76         -0.556          26.12          18.47          8.287
    0.3353              -32.75          10.36          12.86          33.17         -5.997          -7.35         -35.71        -0.5325          26.08          18.47          8.299
    0.3688              -32.74          10.36          12.87          33.18         -5.997         -7.346         -35.65        -0.5073          26.04          18.47          8.311
    0.4023              -32.74          10.36          12.89          33.19         -5.997         -7.342         -35.58        -0.4801           26.0          18.48          8.324
    0.4359              -32.74          10.35          12.91           33.2         -5.997         -7.337         -35.52        -0.4507          25.95          18.48          8.339
    0.4694              -32.73          10.35          12.93          33.21         -5.997         -7.331         -35.44        -0.4189          25.91          18.48          8.354
    0.5029              -32.73          10.35          12.95          33.22         -5.997         -7.325         -35.36        -0.3844          25.85          18.48          8.371
    0.5364              -32.72          10.34          12.97          33.23         -5.997         -7.319         -35.27        -0.3469           25.8          18.49          8.389
      0.57              -32.72          10.34           13.0          33.24         -5.997         -7.312         -35.18        -0.3061          25.73          18.49          8.409
    0.6035              -32.71          10.33          13.03          33.25         -5.997         -7.305         -35.08        -0.2615          25.66           18.5          8.431
     0.637              -32.71          10.33          13.06          33.27         -5.997         -7.296         -34.96        -0.2127          25.59           18.5          8.455
    0.6706               -32.7          10.32          13.09          33.28         -5.997         -7.287         -34.84        -0.1591          25.51          18.51          8.481
    0.7041              -32.69          10.32          13.13           33.3         -5.997         -7.277          -34.7        -0.1001          25.42          18.51           8.51
    0.7376              -32.68          10.31          13.17          33.32         -5.997         -7.266         -34.55       -0.03494          25.32          18.52          8.542
    0.7711              -32.67          10.31          13.22          33.34         -5.998         -7.254         -34.38        0.03725           25.2          18.53          8.577
    0.8047              -32.66           10.3          13.27          33.37         -5.998         -7.241         -34.19         0.1175          25.08          18.53          8.616
    0.8382              -32.65          10.29          13.32          33.39         -5.998         -7.226         -33.98         0.2071          24.94          18.54           8.66
    0.8717              -32.64          10.28          13.39          33.42         -5.998         -7.209         -33.75         0.3074          24.79          18.55          8.709
    0.9052              -32.62          10.27          13.46          33.46         -5.998          -7.19         -33.49         0.4202          24.62          18.56          8.764
    0.9388              -32.61          10.26          13.54          33.49         -5.999         -7.168         -33.19         0.5477          24.42          18.57          8.826
    0.9723              -32.59          10.24          13.63          33.54         -5.999         -7.144         -32.85         0.6925           24.2          18.59          8.896
     1.006              -32.56          10.23          13.73          33.59         -5.999         -7.116         -32.47         0.8578          23.94           18.6          8.977
     1.039              -32.54          10.21          13.85          33.64         -5.999         -7.084         -32.03          1.047          23.65          18.62           9.07
     1.073              -32.51          10.19          13.99          33.71           -6.0         -7.047         -31.52          1.266          23.32          18.64          9.176
     1.106              -32.48          10.16          14.15          33.78           -6.0         -7.004         -30.92          1.521          22.92          18.67          9.301
      1.14              -32.44          10.13          14.34          33.87         -6.001         -6.953         -30.23          1.818          22.47           18.7          9.446
     1.173              -32.39           10.1          14.56          33.97         -6.002         -6.894         -29.41          2.169          21.93          18.73          9.617
     1.207              -32.34          10.06          14.82           34.1         -6.002         -6.824         -28.44          2.586          21.29          18.77           9.82
     1.241              -32.27          10.01          15.14          34.24         -6.003         -6.739         -27.28          3.086          20.52          18.82          10.06
     1.274              -32.19          9.951          15.52          34.42         -6.004         -6.637         -25.87          3.691          19.59          18.88          10.36
     1.308              -32.09          9.879          15.98          34.64         -6.006         -6.512         -24.15           4.43          18.45          18.95          10.72
     1.341              -31.97           9.79          16.56          34.91         -6.007         -6.358         -22.02          5.342          17.05          19.04          11.16
     1.375              -31.82           9.68          17.27          35.25         -6.009         -6.166         -19.37          6.479           15.3          19.15          11.72
     1.408              -31.63          9.541          18.17          35.67         -6.012         -5.925         -16.04          7.911           13.1          19.29          12.42
     1.442              -31.39          9.364          19.32          36.21         -6.015         -5.617         -11.79          9.732           10.3          19.46          13.31
     1.475              -31.09          9.137          20.79           36.9          -6.02         -5.224         -6.364          12.06          6.723          19.69          14.44
     1.509              -30.69          8.847          22.67          37.79         -6.025         -4.719         0.6043          15.05          2.126          19.98           15.9
     1.542              -30.19          8.475          25.07          38.92         -6.032         -4.074          9.505          18.87         -3.746          20.34          17.77
     1.576              -29.55          8.009           28.1          40.34         -6.041         -3.262           20.7          23.68         -11.13          20.81          20.11
     1.609              -28.78           7.44          31.78          42.07         -6.052         -2.274          34.33          29.53         -20.13          21.37          22.97
     1.643              -27.89          6.781          36.06          44.08         -6.064         -1.128          50.14          36.32         -30.55          22.03          26.28
     1.676              -26.92          6.067          40.68          46.25         -6.078         0.1124          67.26          43.66         -41.85          22.74          29.86
      1.71              -25.95          5.353          45.31          48.43         -6.091          1.353          84.38          51.01         -53.14          23.45          33.45
     1.743              -25.05          4.694          49.58          50.43         -6.104          2.499          100.2          57.79         -63.57           24.1          36.76
     1.777              -24.28          4.125          53.26          52.17         -6.114          3.487          113.8          63.65         -72.56          24.67          39.61
      1.81              -23.65          3.658          56.29          53.59         -6.123          4.298          125.0          68.45         -79.95          25.13          41.96
     1.844              -23.14          3.287          58.69          54.72          -6.13          4.943          133.9          72.27         -85.82           25.5          43.82
     1.878              -22.75          2.996          60.58           55.6         -6.136          5.448          140.9          75.26         -90.42          25.79          45.28
     1.911              -22.44           2.77          62.04          56.29          -6.14          5.842          146.3          77.59          -94.0          26.02          46.42
     1.945               -22.2          2.593          63.19          56.83         -6.143          6.149          150.6          79.41          -96.8          26.19           47.3
     1.978              -22.01          2.454          64.09          57.25         -6.146          6.391          153.9          80.85          -99.0          26.33           48.0
